PathFileType	4	(X/Y/Z)	C:/Users/CLatella/Desktop/xsens/3Novembre/Meri/Meri-020.trc	
DataRate	CameraRate	NumFrames	NumMarkers	Units	OrigDataRate	OrigDataStartFrame	OrigNumFrames	
240.00	240.00	5	64	mm	240.00	310	1238	
Frame#	Time	pHipOrigin			pRightASI			pLeftASI			pRightCSI			pLeftCSI			pRightIschialTub			pLeftIschialTub			pSacrum			pL5SpinalProcess			pL3SpinalProcess			pT12SpinalProcess			pPX			pIJ			pT4SpinalProcess			pT8SpinalProcess			pC7SpinalProcess			pTopOfHead			pRightAuricularis			pLeftAuricularis			pBackOfHead			pRightAcromion			pLeftAcromion			pRightArmLatEpicondyle			pRightArmMedEpicondyle			pLeftArmLatEpicondyle			pLeftArmMedEpicondyle			pRightUlnarStyloid			pRightRadialStyloid			pRightOlecranon			pLeftUlnarStyloid			pLeftRadialStyloid			pLeftOlecranon			pRightTopOfHand			pRightPinky			pRightBallHand			pLeftTopOfHand			pLeftPinky			pLeftBallHand			pRightGreaterTrochanter			pRightKneeLatEpicondyle			pRightKneeMedEpicondyle			pRightPatella			pLeftGreaterTrochanter			pLeftKneeLatEpicondyle			pLeftKneeMedEpicondyle			pLeftPatella			pRightLatMalleolus			pRightMedMalleolus			pRightTibialTub			pLeftLatMalleolus			pLeftMedMalleolus			pLeftTibialTub			pRightHeelFoot			pRightFirstMetatarsal			pRightFifthMetatarsal			pRightPivotFoot			pRightHeelCenter			pRightToe			pLeftHeelFoot			pLeftFirstMetatarsal			pLeftFifthMetatarsal			pLeftPivotFoot			pLeftHeelCenter			pLeftToe			
		X1	Y1	Z1	X2	Y2	Z2	X3	Y3	Z3	X4	Y4	Z4	X5	Y5	Z5	X6	Y6	Z6	X7	Y7	Z7	X8	Y8	Z8	X9	Y9	Z9	X10	Y10	Z10	X11	Y11	Z11	X12	Y12	Z12	X13	Y13	Z13	X14	Y14	Z14	X15	Y15	Z15	X16	Y16	Z16	X17	Y17	Z17	X18	Y18	Z18	X19	Y19	Z19	X20	Y20	Z20	X21	Y21	Z21	X22	Y22	Z22	X23	Y23	Z23	X24	Y24	Z24	X25	Y25	Z25	X26	Y26	Z26	X27	Y27	Z27	X28	Y28	Z28	X29	Y29	Z29	X30	Y30	Z30	X31	Y31	Z31	X32	Y32	Z32	X33	Y33	Z33	X34	Y34	Z34	X35	Y35	Z35	X36	Y36	Z36	X37	Y37	Z37	X38	Y38	Z38	X39	Y39	Z39	X40	Y40	Z40	X41	Y41	Z41	X42	Y42	Z42	X43	Y43	Z43	X44	Y44	Z44	X45	Y45	Z45	X46	Y46	Z46	X47	Y47	Z47	X48	Y48	Z48	X49	Y49	Z49	X50	Y50	Z50	X51	Y51	Z51	X52	Y52	Z52	X53	Y53	Z53	X54	Y54	Z54	X55	Y55	Z55	X56	Y56	Z56	X57	Y57	Z57	X58	Y58	Z58	X59	Y59	Z59	X60	Y60	Z60	X61	Y61	Z61	X62	Y62	Z62	X63	Y63	Z63	X64	Y64	Z64	

310	1.287	136.22138	75.39391	929.48988	217.54232	-43.34773	986.70085	216.78889	196.19495	983.53642	201.56946	-21.54829	1064.65645	200.96671	176.40467	1062.04453	73.53543	25.26525	897.69485	73.23406	124.31707	896.38889	76.29803	75.74551	969.07043	129.79205	76.85056	1031.55546	169.57351	75.09254	1129.10041	211.16322	72.27971	1212.33006	372.09733	68.76367	1211.27525	430.36311	62.73617	1305.25394	304.74008	63.79098	1358.29589	259.23249	68.16092	1291.29024	331.31128	62.33434	1398.32850	552.36964	50.37981	1524.15245	464.82029	-9.89514	1476.33432	476.92550	119.79645	1468.64927	432.42250	60.47586	1506.01973	349.99652	-108.74605	1352.67023	336.43465	240.59749	1347.24548	385.00621	-104.32588	1039.84326	364.96479	-46.71308	1038.18570	368.07900	232.66129	1034.66966	343.61742	176.80651	1032.56004	411.07513	-76.29803	811.40122	445.03001	-44.75415	819.78948	358.63592	-93.52662	1035.62402	404.79649	208.75223	808.33724	429.20784	169.27214	816.17299	344.42108	226.63379	1030.50065	560.20539	-67.80931	706.07075	489.63347	-96.33945	737.81556	441.11214	-72.58108	781.31398	545.68917	240.19566	710.59137	477.72917	253.80775	755.24506	429.50921	214.72949	786.23643	133.20763	-73.63589	904.42555	138.83329	-60.37540	523.58836	145.01147	12.95911	520.52438	183.13538	-24.51181	525.34638	127.63220	225.52875	906.43472	132.05236	234.62022	525.44683	143.35391	162.13960	518.11338	178.76544	201.97130	525.04500	152.89744	-75.49437	97.49472	162.18983	-13.36095	94.38052	209.40521	-32.39778	490.88920	151.84263	260.73937	98.54954	154.65546	198.10365	93.82800	205.93940	202.12198	490.23622	118.89233	-37.92299	2.61191	266.61617	-34.55764	2.96352	253.45614	-99.95595	3.86764	278.77162	-70.11985	3.56627	157.66921	-45.65827	7.13254	354.16553	-85.28905	3.01375	111.40819	224.87577	4.06856	258.62974	212.11758	0.10046	249.63873	278.21910	0.80367	273.04550	246.82590	0.00000	150.73759	230.14983	7.38368	349.14262	257.17310	-2.76260 
311	1.292	136.32183	75.49437	929.48988	217.69301	-43.29750	986.60039	216.98980	196.24518	983.38573	201.87084	-21.49806	1064.55599	201.26809	176.45490	1061.94408	73.53543	25.36571	897.79531	73.23406	124.36730	896.48935	76.44872	75.79574	969.17089	130.04319	76.90078	1031.55546	170.02557	75.14277	1129.05018	211.81620	72.32993	1212.17938	372.70008	68.81390	1210.72273	431.21700	62.78640	1304.60096	305.74466	63.79098	1357.89406	260.03616	68.21115	1291.03910	332.41632	62.38457	1397.87644	553.72583	50.43004	1523.24832	466.12624	-9.84491	1475.58089	478.18123	119.84668	1467.89583	433.77869	60.52609	1505.31653	351.00110	-108.69582	1352.31862	337.38901	240.64772	1346.84365	385.10667	-104.62726	1039.34097	365.06525	-47.01446	1037.68341	368.17946	233.01289	1034.21760	343.66765	177.20834	1032.05775	411.02490	-76.64964	810.84870	444.82910	-44.95506	819.18673	358.83684	-93.87823	1035.12173	404.79649	209.10383	807.83495	429.10738	169.52328	815.62047	344.57177	227.08586	1030.04858	560.95882	-67.70886	706.57305	490.23622	-96.38968	737.76533	441.26283	-72.78200	780.86192	546.54307	240.24589	711.14390	478.33192	254.00866	755.34552	429.71013	215.03087	785.88483	133.20763	-73.58566	904.47578	138.83329	-60.37540	523.58836	145.01147	12.95911	520.52438	183.13538	-24.56204	525.34638	127.68243	225.57898	906.43472	132.05236	234.67045	525.44683	143.35391	162.18983	518.11338	178.76544	202.02152	525.04500	152.94767	-75.49437	97.49472	162.24006	-13.41118	94.43075	209.45543	-32.39778	490.88920	151.79240	260.78960	98.54954	154.60523	198.15388	93.82800	205.88917	202.12198	490.23622	118.94256	-37.92299	2.61191	266.71663	-34.55764	3.01375	253.50637	-99.95595	3.86764	278.87208	-70.11985	3.56627	157.71944	-45.70850	7.13254	354.21576	-85.33928	3.01375	111.40819	224.92600	4.06856	258.57951	212.16781	0.10046	249.63873	278.26933	0.80367	272.99527	246.87613	0.00000	150.73759	230.20006	7.33345	349.09239	257.17310	-2.76260 
312	1.296	136.37206	75.49437	929.48988	217.84370	-43.24727	986.49994	217.14049	196.29540	983.18481	202.17221	-21.39761	1064.50576	201.56946	176.55536	1061.79339	73.58566	25.36571	897.94600	73.28429	124.36730	896.58981	76.59941	75.89620	969.27135	130.29434	77.00124	1031.60569	170.47764	75.24322	1128.99995	212.51941	72.38016	1212.02869	373.35306	68.91435	1210.17021	432.12113	62.83663	1303.89775	306.79947	63.84121	1357.54245	260.94028	68.31160	1290.73772	333.57159	62.43480	1397.42438	555.13225	50.53050	1522.29397	467.43220	-9.79468	1474.82745	479.43696	119.89691	1467.04194	435.13488	60.57632	1504.61332	352.00568	-108.59536	1351.91679	338.29313	240.69795	1346.44182	385.20713	-104.87840	1038.83868	365.16571	-47.26560	1037.18112	368.27992	233.41473	1033.71531	343.76810	177.61017	1031.55546	410.92444	-76.95101	810.34641	444.62818	-45.15598	818.58398	358.98753	-94.22983	1034.66966	404.74626	209.40521	807.33266	428.95669	169.77443	815.11818	344.72246	227.53792	1029.54629	561.76249	-67.60840	707.17579	490.88920	-96.49014	737.76533	441.46374	-73.03314	780.46008	547.34673	240.29611	711.64619	478.88444	254.20958	755.39575	429.91105	215.33224	785.53322	133.30809	-73.58566	904.52601	138.88352	-60.47586	523.63859	145.01147	12.85865	520.57461	183.13538	-24.61227	525.39661	127.73265	225.62921	906.38449	132.05236	234.62022	525.39661	143.35391	162.18983	518.11338	178.76544	201.97130	524.99477	152.99790	-75.54460	97.54495	162.29029	-13.46140	94.43075	209.45543	-32.44801	490.93943	151.74217	260.78960	98.49931	154.55501	198.15388	93.77777	205.88917	202.12198	490.18599	118.99279	-37.97322	2.66214	266.71663	-34.55764	3.06398	253.60683	-99.95595	3.91787	278.92231	-70.06962	3.61650	157.76967	-45.70850	7.18276	354.26599	-85.23882	3.06398	111.35796	224.92600	4.06856	258.52929	212.16781	0.05023	249.58850	278.26933	0.75344	272.94504	246.87613	0.00000	150.68736	230.20006	7.33345	349.04216	257.27356	-2.76260 
313	1.300	136.42229	75.59483	929.48988	218.04461	-43.14681	986.34925	217.34141	196.34563	983.03413	202.47359	-21.34738	1064.40530	201.92107	176.60559	1061.64270	73.58566	25.46616	898.09668	73.28429	124.46776	896.69027	76.75010	75.94643	969.42204	130.54549	77.05147	1031.60569	170.97993	75.29345	1128.94972	213.17239	72.43039	1211.87800	374.05626	68.96458	1209.61769	433.02525	62.93709	1303.14432	307.85428	63.89144	1357.14062	261.79418	68.36183	1290.48658	334.67663	62.48503	1396.97231	556.58889	50.58072	1521.28939	468.73816	-9.74445	1474.07401	480.74292	119.94714	1466.23827	436.54129	60.67678	1503.91011	353.06049	-108.54513	1351.51496	339.24748	240.74818	1346.03998	385.30759	-105.12955	1038.33639	365.26617	-47.56698	1036.62860	368.33014	233.86679	1033.26325	343.86856	178.01200	1031.10340	410.82398	-77.25239	809.79389	444.37703	-45.25644	818.03146	359.13822	-94.58143	1034.16737	404.74626	209.75681	806.83037	428.80601	170.02557	814.56566	344.87314	227.98998	1029.09423	562.51593	-67.50794	707.72831	491.44172	-96.59060	737.76533	441.61443	-73.23406	780.00802	548.15040	240.34634	712.19871	479.43696	254.41050	755.49621	430.06173	215.68385	785.13139	133.35832	-73.48520	904.57624	138.88352	-60.47586	523.68882	145.06170	12.80843	520.57461	183.18560	-24.66250	525.39661	127.78288	225.67944	906.38449	132.00213	234.67045	525.39661	143.35391	162.18983	518.11338	178.76544	202.02152	524.99477	153.09836	-75.59483	97.59518	162.29029	-13.46140	94.48098	209.45543	-32.44801	490.98966	151.74217	260.83983	98.49931	154.55501	198.20411	93.77777	205.88917	202.17221	490.18599	119.04302	-38.02344	2.66214	266.81709	-34.50741	3.11421	253.65706	-99.95595	3.91787	278.97254	-70.06962	3.66673	157.81990	-45.70850	7.18276	354.36645	-85.23882	3.06398	111.30773	224.92600	4.06856	258.52929	212.21804	0.05023	249.53827	278.31956	0.75344	272.89481	246.92636	0.00000	150.63713	230.25029	7.33345	348.99193	257.32379	-2.71237 
314	1.304	136.52275	75.64506	929.48988	218.19530	-43.09659	986.24879	217.49209	196.44609	982.88344	202.82519	-21.24692	1064.30484	202.22244	176.70605	1061.54224	73.58566	25.51639	898.19714	73.28429	124.51799	896.84096	76.90078	76.04689	969.52249	130.79663	77.10170	1031.65592	171.43199	75.34368	1128.89949	213.82537	72.53085	1211.72731	374.70924	69.06504	1209.06517	433.92938	62.98732	1302.44111	308.85887	63.94167	1356.73879	262.64807	68.41206	1290.23543	335.83190	62.53526	1396.52025	557.99531	50.68118	1520.33503	470.09434	-9.64399	1473.27035	482.04887	120.04760	1465.43461	437.94771	60.72701	1503.20690	354.06507	-108.49490	1351.11313	340.20184	240.79841	1345.63815	385.40805	-105.38070	1037.83410	365.31640	-47.81812	1036.12631	368.43060	234.26862	1032.76096	343.91879	178.46407	1030.60110	410.67329	-77.50353	809.24137	444.12589	-45.40713	817.42872	359.28890	-94.88281	1033.71531	404.69603	210.10841	806.32808	428.60509	170.27672	814.01313	345.02383	228.44204	1028.64217	563.21913	-67.40748	708.28084	491.94401	-96.69106	737.71510	441.71489	-73.38475	779.55596	548.90383	240.39657	712.70100	479.93925	254.61141	755.59667	430.26265	215.98522	784.77979	133.40855	-73.43497	904.57624	138.88352	-60.52609	523.73904	145.06170	12.80843	520.57461	183.18560	-24.71273	525.39661	127.88334	225.72967	906.38449	132.00213	234.67045	525.39661	143.35391	162.24006	518.11338	178.71521	202.07175	524.94454	153.14859	-75.64506	97.59518	162.34052	-13.51163	94.48098	209.50566	-32.49824	490.98966	151.69195	260.89005	98.49931	154.50478	198.25434	93.77777	205.83894	202.22244	490.18599	119.09325	-38.02344	2.66214	266.86732	-34.50741	3.16443	253.70729	-99.95595	3.96810	279.02277	-70.06962	3.71695	157.87013	-45.75873	7.18276	354.41668	-85.23882	3.11421	111.25750	224.97623	4.06856	258.47906	212.26827	0.05023	249.48804	278.36979	0.75344	272.89481	246.97659	0.00000	150.58690	230.30052	7.33345	348.99193	257.37402	-2.71237 
